Coordinates
version=1
nRows=16
nColumns=40
inDegrees=yes

Units are S.I. units (second, meters, Newtons, ...)
Angles are in degrees.

endheader
time	pelvis_tilt	pelvis_list	pelvis_rotation	pelvis_tx	pelvis_ty	pelvis_tz	hip_flexion_r	hip_adduction_r	hip_rotation_r	knee_angle_r	knee_angle_r_beta	ankle_angle_r	subtalar_angle_r	mtp_angle_r	hip_flexion_l	hip_adduction_l	hip_rotation_l	knee_angle_l	knee_angle_l_beta	ankle_angle_l	subtalar_angle_l	mtp_angle_l	lumbar_extension	lumbar_bending	lumbar_rotation	arm_flex_r	arm_add_r	arm_rot_r	elbow_flex_r	pro_sup_r	wrist_flex_r	wrist_dev_r	arm_flex_l	arm_add_l	arm_rot_l	elbow_flex_l	pro_sup_l	wrist_flex_l	wrist_dev_l
     40.30314286	     -2.85528865	     -4.74860495	     -1.23494873	      1.06040204	      0.93509813	      0.39121490	     30.03904638	     -5.69050953	     -3.67798926	     46.08816868	     46.08816868	      1.43584188	     -8.08277820	     -2.97799637	     11.77905599	     -6.43358462	     -9.38744318	     20.11058728	     20.11058728	     12.13356268	    -11.58395008	     -3.46632128	    -10.94425653	      3.82117898	      1.86127429	      2.78234730	    -15.26079051	     -6.43958618	     26.67755007	     47.06111385	      0.00000000	      0.00000000	     17.51892219	    -18.35176182	    -10.87730047	     60.32808130	     47.06410617	      0.00000000	      0.00000000
     40.31628571	     -3.00705176	     -4.79305168	     -1.66541251	      1.05979273	      0.93493586	      0.39204390	     29.91041288	     -5.48112228	     -3.94743548	     42.26742381	     42.26742381	      1.67806383	     -6.74897352	     -2.76186929	     11.42004173	     -6.54824781	     -9.72589061	     19.90909578	     19.90909578	     12.32881625	    -11.61901627	     -3.52676177	    -10.96203439	      3.87042002	      2.06186960	      1.59893326	    -15.74362421	     -6.72256503	     26.37148438	     47.07562238	      0.00000000	      0.00000000	     18.08939018	    -18.75526231	    -11.14729701	     61.83481015	     47.11427811	      0.00000000	      0.00000000
     40.32942857	     -3.36042936	     -4.84394415	     -2.06355776	      1.05912337	      0.93443701	      0.39308451	     29.86143256	     -5.17660229	     -4.21793290	     38.16229718	     38.16229718	      1.81387013	     -5.34308373	     -2.40070613	     11.30602089	     -6.68073050	    -10.00640847	     19.72319452	     19.72319452	     12.49091303	    -11.68037298	     -3.59232623	    -10.71534731	      3.94828380	      2.06307001	      0.53335387	    -16.06543728	     -6.91125900	     26.12243965	     47.08676404	      0.00000000	      0.00000000	     18.54119160	    -19.28236801	    -11.43859098	     62.94603860	     47.15844102	      0.00000000	      0.00000000
     40.34257143	     -3.53233038	     -4.88273791	     -2.43404988	      1.05868006	      0.93409263	      0.39416775	     29.41212622	     -4.91779668	     -4.75933631	     33.77040212	     33.77040212	      1.88599440	     -3.31424159	     -2.14397544	     10.99021079	     -6.80332513	    -10.31184656	     19.56224518	     19.56224518	     12.69890924	    -11.67537178	     -3.71860088	    -10.71544836	      3.99290039	      2.22946215	     -0.60083693	    -16.44435752	     -7.21174215	     26.02061288	     47.09768365	      0.00000000	      0.00000000	     18.90751512	    -19.58645622	    -11.79279496	     64.75742807	     47.21774420	      0.00000000	      0.00000000
     40.35571429	     -3.84603066	     -4.86614602	     -2.80015198	      1.05824369	      0.93346333	      0.39547504	     29.01888760	     -4.61646677	     -5.29037256	     29.25798592	     29.25798592	      1.84585204	     -1.13956028	     -1.73637194	     10.82320134	     -6.88457383	    -10.62072978	     19.39035266	     19.39035266	     12.87623063	    -11.67051658	     -3.84724190	    -10.54106770	      3.97575374	      2.33073220	     -1.63216848	    -16.59974306	     -7.47909268	     26.01295008	     47.10319325	      0.00000000	      0.00000000	     19.19833985	    -19.95512855	    -12.15693448	     66.39596997	     47.27477392	      0.00000000	      0.00000000
     40.36885714	     -3.97256004	     -4.70191978	     -3.11152793	      1.05811175	      0.93288471	      0.39673363	     28.34336299	     -4.57361293	     -6.34277221	     24.80143177	     24.80143177	      1.58658849	      1.97039563	     -1.87181995	     10.44319663	     -6.81073286	    -11.04578083	     19.22317016	     19.22317016	     13.04438590	    -11.51741722	     -4.21145683	    -10.68883225	      3.74061975	      2.03737078	     -2.81755919	    -16.70509522	     -8.69999749	     27.33878361	     47.09364580	      0.00000000	      0.00000000	     18.36830524	    -20.46158066	    -13.34642162	     70.56965319	     47.43294645	      0.00000000	      0.00000000
     40.38200000	     -4.22066922	     -4.68039192	     -3.38370194	      1.05808021	      0.93219949	      0.39829436	     27.64283927	     -4.12778896	     -6.98868833	     20.31881260	     20.31881260	      1.23508138	      4.11619217	     -0.84592861	     10.20975371	     -6.88422860	    -11.24302964	     19.08293232	     19.08293232	     13.25086790	    -11.58494783	     -4.35736590	    -10.52333571	      3.74664239	      2.11336593	     -3.65469274	    -16.77994077	     -8.86725807	     27.18291349	     47.09719943	      0.00000000	      0.00000000	     18.75075175	    -20.72536339	    -13.65479273	     71.52583240	     47.47639115	      0.00000000	      0.00000000
     40.39514286	     -4.43220456	     -4.56699152	     -3.62887334	      1.05827123	      0.93143830	      0.40002355	     26.94289682	     -3.77357268	     -7.77449861	     16.27601781	     16.27601781	      0.88758336	      6.47822990	      0.37050799	      9.90757550	     -6.86474831	    -11.47216264	     18.90310240	     18.90310240	     13.44380504	    -11.56443002	     -4.53132436	    -10.34821944	      3.61892900	      2.23454095	     -4.46449601	    -16.71769184	     -9.02526827	     27.14990268	     47.09500280	      0.00000000	      0.00000000	     19.06658109	    -20.88972497	    -13.92992761	     72.65873174	     47.51989806	      0.00000000	      0.00000000
     40.40828571	     -4.45844015	     -4.42789682	     -3.81443624	      1.05878906	      0.93084938	      0.40173912	     26.18091220	     -3.51117005	     -8.92965849	     12.97969804	     12.97969804	      0.66615141	      8.96485624	      2.01513160	      9.37534926	     -6.80264806	    -11.71866367	     18.69897181	     18.69897181	     13.64321286	    -11.50364921	     -4.77701554	    -10.45389940	      3.47963168	      2.34362619	     -5.34668971	    -16.74138185	     -9.27694925	     27.30310618	     47.08769616	      0.00000000	      0.00000000	     19.26788234	    -21.10828446	    -14.29197445	     74.06674002	     47.57493775	      0.00000000	      0.00000000
     40.42142857	     -4.68508523	     -4.21836545	     -3.99133177	      1.05935795	      0.92990938	      0.40369078	     25.81915018	     -3.25306621	     -9.72220734	     10.51573809	     10.51573809	      0.44885360	     10.51642317	      3.36933694	      9.07819266	     -6.68101752	    -11.88324793	     18.51375815	     18.51375815	     13.82492689	    -11.49062339	     -4.96794016	    -10.18478917	      3.24625765	      2.36978277	     -5.98031729	    -16.51778013	     -9.39979759	     27.41798600	     47.07772947	      0.00000000	      0.00000000	     19.43121729	    -21.21532991	    -14.50413820	     75.00096064	     47.60986834	      0.00000000	      0.00000000
     40.43457143	     -4.71003424	     -4.18797632	     -4.11720910	      1.06021614	      0.92943706	      0.40566193	     25.48170055	     -2.97535833	    -11.10227172	      9.26307727	      9.26307727	      1.65805690	     12.35485532	      8.23763562	      8.46623319	     -6.71323351	    -11.96452514	     18.16460920	     18.16460920	     13.80508599	    -11.62493406	     -5.56433744	    -10.22884699	      3.23345340	      2.18975975	     -6.76434496	    -16.36845129	    -10.09136731	     28.68284912	     47.00639156	      0.00000000	      0.00000000	     18.97287392	    -21.36923104	    -15.27424197	     77.01940993	     47.71902571	      0.00000000	      0.00000000
     40.44771429	     -4.80087283	     -4.12205387	     -4.20044612	      1.06125466	      0.92878823	      0.40785915	     25.12522027	     -2.63523244	    -11.77306462	      8.29614079	      8.29614079	      1.40184586	     12.64217181	      8.57081226	      7.95751529	     -6.72968042	    -12.02287970	     17.90239435	     17.90239435	     14.03589615	    -11.60299639	     -5.58977142	    -10.05735878	      3.20702089	      2.31178143	     -7.21545373	    -16.15911889	    -10.06541710	     28.49848918	     46.99884003	      0.00000000	      0.00000000	     19.19102727	    -21.33325634	    -15.32104382	     77.38558703	     47.73368454	      0.00000000	      0.00000000
     40.46085714	     -4.90339868	     -4.09605513	     -4.21486506	      1.06244720	      0.92804928	      0.41013475	     24.95609087	     -2.35257230	    -12.37977854	      8.25631728	      8.25631728	      1.37442883	     12.38851244	      8.54258742	      7.51296728	     -6.80686793	    -12.00669527	     17.74003717	     17.74003717	     14.29195488	    -11.60431871	     -5.62686830	     -9.84557375	      3.25162920	      2.28563045	     -7.51766141	    -15.88952647	    -10.03828438	     28.41362170	     46.99437887	      0.00000000	      0.00000000	     19.27349160	    -21.39110377	    -15.36765295	     77.54998475	     47.74143192	      0.00000000	      0.00000000
     40.47400000	     -4.95526909	     -4.13970831	     -4.19218906	      1.06391410	      0.92743106	      0.41252643	     24.62829506	     -2.04623712	    -12.96572256	      8.53787664	      8.53787664	      1.31321344	     11.98540528	      8.39565927	      6.97552420	     -6.95656756	    -11.95738147	     17.53804474	     17.53804474	     14.56802158	    -11.58121916	     -5.64151050	     -9.66075414	      3.36893052	      2.25141720	     -7.75351138	    -15.60904469	    -10.00799452	     28.35758152	     46.98956259	      0.00000000	      0.00000000	     19.25149139	    -21.31107669	    -15.36101316	     77.69609294	     47.74425375	      0.00000000	      0.00000000
     40.48714286	     -4.87162041	     -4.25804468	     -4.09855214	      1.06573652	      0.92693541	      0.41498461	     24.19341572	     -1.75476938	    -13.43181879	      9.34386323	      9.34386323	      1.41048984	     11.29893478	      7.89811250	      6.22214012	     -7.17398764	    -11.86122827	     17.23300057	     17.23300057	     14.86190472	    -11.45049345	     -5.59163981	     -9.57131983	      3.60673968	      2.26228983	     -7.93838739	    -15.33129714	     -9.97905098	     28.33966051	     46.98270580	      0.00000000	      0.00000000	     19.12698802	    -21.12361872	    -15.32004432	     77.88394234	     47.74519376	      0.00000000	      0.00000000
     40.50028571	     -4.73589107	     -4.07575021	     -4.06655320	      1.06785025	      0.92601576	      0.41765743	     23.83563268	     -1.68824141	    -12.82136874	     10.44453341	     10.44453341	     -0.06436682	      9.15433849	      1.89893973	      5.44609295	     -7.11590353	    -12.08959944	     17.09441458	     17.09441458	     15.72109114	    -10.82536360	     -4.62096443	     -9.51570011	      3.44261546	      2.18129754	     -8.17717670	    -15.11198443	    -10.02626019	     29.04105719	     46.89858159	      0.00000000	      0.00000000	     18.59221068	    -21.13330274	    -15.36610531	     78.97192402	     47.78862416	      0.00000000	      0.00000000
